<svg width="300" height="200" viewBox="0 0 300 200" xmlns="http://www.w3.org/2000/svg">
  <!-- Elementos geométricos con efecto 3D -->
  <g transform="translate(120, 20)">
    <!-- Primer elemento -->
    <g>
      <!-- Cara lateral derecha roja -->
      <polygon points="70,0 80,5 80,20 70,15" fill="#B85450"/>
      <!-- Cara inferior roja -->
      <polygon points="0,15 70,15 80,20 10,20" fill="#A04540"/>
    </g>
    
    <!-- Segundo elemento -->
    <g>
      <!-- Cara lateral derecha roja -->
      <polygon points="70,30 80,35 80,50 70,45" fill="#B85450"/>
      <!-- Cara inferior roja -->
      <polygon points="0,45 70,45 80,50 10,50" fill="#A04540"/>
    </g>
    
    <!-- Tercer elemento -->
    <g>
      <!-- Cara lateral derecha roja -->
      <polygon points="70,60 80,65 80,80 70,75" fill="#B85450"/>
      <!-- Cara inferior roja -->
      <polygon points="0,75 70,75 80,80 10,80" fill="#A04540"/>
    </g>
    
    <!-- Cuarto elemento -->
    <g>
      <!-- Cara lateral derecha roja -->
      <polygon points="70,90 80,95 80,110 70,105" fill="#B85450"/>
      <!-- Cara inferior roja -->
      <polygon points="0,105 70,105 80,110 10,110" fill="#A04540"/>
    </g>
  </g>
  
  <!-- Texto SOARES PARENTE -->
  <text x="50" y="165" font-family="Arial, sans-serif" font-size="24" font-weight="bold" fill="#333333">SOARES PARENTE</text>
  
  <!-- Texto PROPIEDADES -->
  <text x="50" y="185" font-family="Arial, sans-serif" font-size="14" font-weight="normal" fill="#666666" letter-spacing="1px">PROPIEDADES</text>
</svg>